# xmcd CD database file
#
# Track frame offsets:
#	150
#	39852
#	73244
#	107196
#	144719
#	176257
#	213095
#	238092
#	266471
#	314321
#
# Disc length: 4722 seconds
#
# Revision: 0
# Processed by: cddbd v1.5.2PL0 Copyright (c) Steve Scherf et al.
# Submitted via: CDex 1.51
#
DISCID=8b12700a
DTITLE=Jazzorchester Tirol - Neue Lieder
DYEAR=2003
DGENRE=Jazz
TTITLE0=Jungle me
TTITLE1=No a kloans Bier
TTITLE2=Ahmed in Tirol
TTITLE3=Heute Julia, morgen ...
TTITLE4=Grad no ungrad
TTITLE5=Es woar amol am Abend spat
TTITLE6=Fool time
TTITLE7=3Uhr45
TTITLE8=Dur oder Moll, koana woas was soll
TTITLE9=Im Zirkus mit Libed
EXTD=YEAR: 2003
EXTT0=
EXTT1=
EXTT2=
EXTT3=
EXTT4=
EXTT5=
EXTT6=
EXTT7=
EXTT8=
EXTT9=
PLAYORDER=
